<svg id="Layer_1" data-name="Layer 1" xmlns="http://www.w3.org/2000/svg" viewBox="0 0 576 532.08"><defs><style>.cls-1{fill:#fff;}</style></defs><title>box_house-cover</title><path class="cls-1" d="M0,0V532.08H576V0H0ZM542.55,300.37l-94.1-.49L470,402l-79.54,36.45-7.87-35.17L356.7,485.58l-48.75-.67-0.69,41.6-37.58.11,0.76-40.83H218.33l-24.72-86.6L210,400.25l-0.56-83.8-16.62,82.14-8.16,39.3L106,402.51l22.48-101.28s-92.17-.83-93.3-0.28S9.33,289,8.08,267.15s25.48-36.51,25.48-36.51l95.16-.65L106.29,127.21l78.56-34.47,8.62,40.16,24.16-86.68,52.31-.16V5.74l36.79-.61L306,46.07l50.18,0.18,26.6,83,8-37.72,79.7,34.81L447.18,229.51l93.2,0.67S566,239.71,567.31,265,542.55,300.37,542.55,300.37Z" transform="translate(0 0)"/><polygon class="cls-1" points="366.17 399.12 382.31 400.31 366.32 319.61 366.17 399.12"/><polygon class="cls-1" points="366.05 212.5 382.95 131.48 364.85 132.88 366.05 212.5"/><polygon class="cls-1" points="210.3 131.73 193.47 132.91 209.75 211.1 210.3 131.73"/></svg>