<svg id="Layer_1" data-name="Layer 1" xmlns="http://www.w3.org/2000/svg" viewBox="0 0 559.84 521.83"><title>box_house-outline</title><path d="M392.51,437.06l-2.08,1.35-7.34-35.15-0.53,0L356.7,485.58H307.27c0,13.83,0,27.39,0,40.92-1.81.53-34.68,0.64-37.58,0.11V485.76H218.18l-25-86.41H209c0.7-2.3,1-66.51.3-78.88-1.62,5.41-2.54,11-3.73,16.51s-2.35,11.08-3.5,16.63-2.32,11.25-3.48,16.88-2.3,11.26-3.47,16.88-2.37,11.24-3.55,16.86-2.32,11.09-3.47,16.64-2.32,11.24-3.5,17c-1.77-.63-3.46-0.94-4.7-2.27l0,0.05,4.3,1.34L209,317.73l-2.06-1,2.47-.26,0.34-1.73a0.91,0.91,0,0,1,.34.22c0,1.43,0,2.85,0,4.28q0,38.87,0,77.74c0,0.63,0,1.27,0,1.86,1.78,0.52,152.37.66,155.35,0.15V317.41l0.36-.09c0.26,1.1.54,2.19,0.77,3.29q5.95,28.59,11.88,57.18c1.31,6.33,2.49,12.69,4,19,1,4.14,1.5,8.36,2.46,12.49s1.86,8.58,2.75,12.87,1.7,8.45,2.57,12.67c0.16,0.77.41,1.53,0.63,2.33h1.7ZM218.64,484.9H355.93c1.52-3.1,26.38-82.89,26.38-84.59-2.6-.45-186.19-0.34-188.09.16Zm51.78,0.88v40.33h36c0.5-3.67.32-38.67-.19-40.33H270.42Zm95.74-86.66h16.08l-15.7-75.54-0.38.07v75.47Z" transform="translate(-8.08 -5.12)"/><path d="M366.11,212.44l-0.74,1.67a1.16,1.16,0,0,1-.26,0,0.42,0.42,0,0,1-.18-0.14,0.63,0.63,0,0,1,0-.23c0-.08,0-0.16,0-0.24s0-.32,0-0.48q0-.48,0-1,0.12-38.75.24-77.5c0-.16,0-0.32,0-0.48s0-.32,0-0.48a1.6,1.6,0,0,0,0-.24,1.42,1.42,0,0,0-.08-0.23l-0.1-.21c-1.71-.56-152.58-0.67-155-0.11-0.57,3.68-.3,79.6.4,81.71l-2.71-.34-0.09-.46,1.37-1L184.85,92.74l-4,1.14,0,0,4.19-2.39c1.6,6.64,2.69,13,4,19.39s2.55,12.66,4.06,19c3.05-9.13,5.58-18.39,8.28-27.59s5.43-18.71,8.13-28.07,5.34-18.55,8.09-28.08h51.53V5.12h37.56v41c5.66,0.25,11.08.09,16.48,0.12s11,0,16.55,0h16.44l26.08,83,0.52,0,8-37.72a2,2,0,0,1,2.23.93l0-.05h-1.86l-8.22,39,50.21,11.27,0,0.43a3.06,3.06,0,0,1-.71.09,7.77,7.77,0,0,1-.93-0.21l-46.3-10.33c-2.32-.52-2.36-0.5-2.84,1.75q-5,23.54-9.95,47.08-3,14.29-6,28.59c-0.16.78-.25,1.57-0.37,2.36ZM193.63,131.73H381.88c0-1.86-25.3-82.64-26.47-84.73H218.13ZM306,5.74H269.93V46.07H306V5.74Zm59.7,203.08,0.35,0,16-76.25H365.72v76.21Zm-157.21-.55,0.5-.15c0.56-13.13.22-73.44-.42-75.45-2.94-.45-13.29-0.32-15.12.24Z" transform="translate(-8.08 -5.12)"/><path d="M114.59,123.14c-0.86.5-1.69,1.06-2.59,1.49-1.79.86-3.62,1.64-5.7,2.58l5.82,27.08L162.43,143l0.12,0.48c-4,1.08-8.14,1.9-12.23,2.8s-8.41,1.88-12.61,2.83L125.1,152l-12.83,2.9c1.36,6.38,2.68,12.59,4,18.8s2.73,12.63,4.09,19,2.58,12.51,4,18.72,2.32,12.43,4.32,18.63a10.75,10.75,0,0,1-1.31.15q-28.79.31-57.59,0.61c-10.64.12-21.27,0.3-31.91,0.45-0.83,0-1.66,0-2.5,0l0-.54,92.28-1.14L105.6,126.83c3.07-1.17,5.82-2.93,9-3.64Z" transform="translate(-8.08 -5.12)"/><path d="M118,408.28a1.08,1.08,0,0,1-.47,0l-12.2-5.27L127.91,300.9h-3.46q-44.62,0-89.23,0a7.25,7.25,0,0,1-6-3.07l0,0a5.15,5.15,0,0,1,1.45.71c1.62,1.59,3.57,1.78,5.73,1.77q44.25-.06,88.5,0h2.91l0.49-1.48,0.3,0.07a10.77,10.77,0,0,1,0,2.28q-7.4,33.4-14.85,66.79c-0.5,2.25-1,4.51-1.56,7.11,8.12,2.12,16.27,3.85,24.37,5.78s16.28,3.81,24.42,5.72l-0.13.55L112,375.8,106,402.51c0.58,0.33,1.09.68,1.65,0.93,2.91,1.31,5.84,2.57,8.75,3.89a10.91,10.91,0,0,1,1.51,1Z" transform="translate(-8.08 -5.12)"/><path d="M343.58,159.64v33.67c-1.69.49-26,.62-29,0.13V159.64h29Zm-0.66.8c-2.67-.47-11.43-0.39-13.21.09v15.65h13.21V160.43Zm-27.58-.2V176h13.43c0-5.3,0-10.5,0-15.79H315.34Zm27.55,16.88H329.75v15.8c4.48,0,8.8.26,13.15-.12V177.12Zm-27.62,15.7h13.38V177.2c-2.94-.51-11.69-0.45-13.38.08v15.54Z" transform="translate(-8.08 -5.12)"/><path d="M314.55,337.7h28.7c0.54,1.68.65,31.18,0.12,34H314.55v-34Zm14.08,0.7H315.32v15.89h13.31V338.4Zm-13.3,32.52c3.15,0.43,11.54.33,13.26-.12,0.45-3.66.28-14-.24-15.59h-13v15.71Zm14.28-15.87c0,5.47-.14,10.69.09,15.94h13.15V355.05H329.62Zm13.27-16.62H329.72v15.63h13.17V338.43Z" transform="translate(-8.08 -5.12)"/><path d="M459.25,121.75a9.1,9.1,0,0,1,1.58.38c3.14,1.36,6.26,2.75,9.62,4.24L448.35,229.06l92,1.12c-1.71.71-87.64-.09-93.2-0.67a22.47,22.47,0,0,0,1.06-2.92q10.51-48.54,21-97.08c0.18-.85.31-1.72,0.5-2.8-2.69-1.2-5.38-2.37-8-3.6a26,26,0,0,1-2.37-1.4Z" transform="translate(-8.08 -5.12)"/><path d="M544.2,299.31a7.11,7.11,0,0,1-1.64,1.06,6.6,6.6,0,0,1-1.91,0H451.44c-1,0-2,.08-3.27.13l22.58,102.08-2.85.85,0,0.05,2-1.56c-1.49-6.79-3-13.71-4.52-20.63s-3.11-13.86-4.64-20.79-3-13.72-4.5-20.58-3.15-13.85-4.64-20.79-3.12-13.75-4.52-20.65l0.6-.17,0.7,1.53h2.29q44.88,0,89.75,0a27.39,27.39,0,0,0,3.73-.5Z" transform="translate(-8.08 -5.12)"/><path d="M260.44,159.61v33.93H231.67c-0.52-1.59-.65-31.12-0.1-33.93h28.87Zm-13.91,16.56h13.19V160.25H246.53v15.92ZM232,177v15.78h13.47V177H232Zm13.32-1c0.51-2.75.4-14.12-.12-15.73H232.19c-0.51,2.77-.41,13.87.15,15.73h13Zm14.33,16.84V176.94H248c-0.46,0-.93.08-1.36,0.13-0.54,2.56-.44,14,0.15,15.81H259.7Z" transform="translate(-8.08 -5.12)"/><path d="M231.37,371.57V337.77h28.78c0.5,1.67.7,28.9,0.25,33.65C258.75,371.92,234.68,372.07,231.37,371.57Zm0.69-33.23v15.91h13.38c0.46-3.39.32-14.21-.21-15.91H232.05Zm-0.15,32.52c3.27,0.54,12,.41,13.6-0.13V355.2H231.92C231.86,360.47,231.88,365.61,231.91,370.86ZM259.72,371V355.09H246.52V371h13.19Zm0-16.86V338.39H246.54v15.76h13.19Z" transform="translate(-8.08 -5.12)"/><path d="M297.75,358.52H279.89V317.83a18.91,18.91,0,0,1,2.36-1,3,3,0,0,1,1.87,0,7.27,7.27,0,0,0,6.57,0,1.4,1.4,0,0,1,1.17,0c1.79,1.21,3.88.43,5.9,0.94v40.84Zm-0.89-.67c0.53-4.11.32-38-.21-39.6h-16.1v39.6h16.31Z" transform="translate(-8.08 -5.12)"/><path d="M297.91,213.9c-3-.55-5.66.81-8.47,0a7.74,7.74,0,0,0-4,0,9.88,9.88,0,0,1-5.51-.32V173c1.7-.48,13.51-0.64,18-0.21C298,186.37,297.88,200,297.91,213.9Zm-1-.92V173.62c-2.44-.57-14.71-0.48-16.4.12-0.51,4.42-.28,37.53.3,39.24H297Z" transform="translate(-8.08 -5.12)"/><path d="M432.91,387l-48.36,11.3-0.12-.47c5.25-1.49,10.62-2.53,15.92-3.83s10.87-2.56,16.31-3.82l16.23-3.73Z" transform="translate(-8.08 -5.12)"/><path d="M562,249.92a23.08,23.08,0,0,1,1.82,2.38,27.46,27.46,0,0,1,4,16.67,27.94,27.94,0,0,1-5.91,14.39,0.88,0.88,0,0,1-.43.12l0,0c0.36-.69.66-1.42,1.08-2.06,3.25-5,5.13-10.39,4.72-16.45a29.39,29.39,0,0,0-4.12-12.59c-0.46-.81-0.79-1.68-1.18-2.53Z" transform="translate(-8.08 -5.12)"/><path d="M423.71,423.14a5.16,5.16,0,0,1-1,.84q-12.22,5.47-24.46,10.89a6.73,6.73,0,0,1-1.36.29l0,0.05a5.14,5.14,0,0,1,1-.84q12.22-5.47,24.46-10.89a6.76,6.76,0,0,1,1.36-.29Z" transform="translate(-8.08 -5.12)"/><path d="M436.73,417.45a5.06,5.06,0,0,1,1-.84q10.06-4.51,20.14-9a7,7,0,0,1,1.36-.3l0-.05a5.08,5.08,0,0,1-1,.84q-10.06,4.51-20.14,9a7,7,0,0,1-1.36.3Z" transform="translate(-8.08 -5.12)"/><path d="M10.44,257.09c-0.47,1.92-1,3.84-1.39,5.77-1.18,5.83.16,11.24,2.83,16.41a7.79,7.79,0,0,1,.81,2.08A24.22,24.22,0,0,1,8.3,264a42.83,42.83,0,0,1,1.34-5.57,5.1,5.1,0,0,1,.86-1.31Z" transform="translate(-8.08 -5.12)"/><path d="M454.95,119.8a6.58,6.58,0,0,1-1.35-.28q-7-3-13.9-6.12a5.37,5.37,0,0,1-1-.82l0,0.05a6.45,6.45,0,0,1,1.35.27q7,3,13.9,6.12a5.3,5.3,0,0,1,1,.82Z" transform="translate(-8.08 -5.12)"/><path d="M434.31,110.68a6.49,6.49,0,0,1-1.35-.28q-7-3-13.9-6.12a5.34,5.34,0,0,1-1-.82l0,0.05a6.41,6.41,0,0,1,1.35.27q7,3,13.9,6.12a5.31,5.31,0,0,1,1,.82Z" transform="translate(-8.08 -5.12)"/><path d="M397.33,94.39a6.38,6.38,0,0,1,1.35.27q7,3,13.9,6.13a5.34,5.34,0,0,1,1,.82l0-.05a6.4,6.4,0,0,1-1.35-.27q-7-3-13.9-6.12a5.31,5.31,0,0,1-1-.82Z" transform="translate(-8.08 -5.12)"/><path d="M179.94,435.62a2.68,2.68,0,0,1-.92,0q-5.35-2.33-10.66-4.73a1.61,1.61,0,0,1-.42-0.5l0,0.05a6.24,6.24,0,0,1,1.36.26q4.9,2.13,9.78,4.32a4.47,4.47,0,0,1,.87.69Z" transform="translate(-8.08 -5.12)"/><path d="M160.25,103.05a2.69,2.69,0,0,1,.63-0.59q5.09-2.3,10.2-4.54a4.29,4.29,0,0,1,1.14-.16l0-.05a5.6,5.6,0,0,1-1.05.82q-4.77,2.14-9.57,4.21a6.55,6.55,0,0,1-1.35.27Z" transform="translate(-8.08 -5.12)"/><path d="M119,121.29a2.7,2.7,0,0,1,.63-0.6q5.09-2.3,10.2-4.54a4.22,4.22,0,0,1,1.14-.16l0-.05a7.78,7.78,0,0,1-1.27.91q-4.44,2-8.91,3.93a11.56,11.56,0,0,1-1.79.46Z" transform="translate(-8.08 -5.12)"/><path d="M139.61,112.17a2.69,2.69,0,0,1,.63-0.6q5.09-2.3,10.2-4.54a4.26,4.26,0,0,1,1.14-.16l0-.05a2.74,2.74,0,0,1-.63.59q-5.09,2.3-10.2,4.54a4.28,4.28,0,0,1-1.14.16Z" transform="translate(-8.08 -5.12)"/><path d="M138.63,417.4a6.4,6.4,0,0,1-1.35-.27q-4.9-2.13-9.78-4.32a4.06,4.06,0,0,1-.84-0.7l0,0.05a6.36,6.36,0,0,1,1.36.27q4.91,2.13,9.78,4.32a4,4,0,0,1,.84.71Z" transform="translate(-8.08 -5.12)"/><path d="M147.25,421.28a6.33,6.33,0,0,1,1.36.27q4.91,2.13,9.78,4.32a4,4,0,0,1,.84.7l0-.05a6.38,6.38,0,0,1-1.35-.27q-4.9-2.13-9.78-4.32a4.08,4.08,0,0,1-.84-0.7Z" transform="translate(-8.08 -5.12)"/><path d="M18.16,245.11a8.18,8.18,0,0,1,1-1.53q2.88-3,5.86-5.82a6.76,6.76,0,0,1,1.35-.81l0,0A7.86,7.86,0,0,1,25.5,238q-3.2,3.23-6.44,6.42a5.78,5.78,0,0,1-.94.62Z" transform="translate(-8.08 -5.12)"/><path d="M560,285.4c-1.58,1.82-3.1,3.7-4.76,5.44a22.8,22.8,0,0,1-2.92,2.23l0,0c1.67-1.73,3.33-3.47,5-5.17,0.86-.86,1.78-1.66,2.67-2.49Z" transform="translate(-8.08 -5.12)"/><path d="M14.81,249.44a8,8,0,0,1,3.35-4.33l0,0-3.36,4.32Z" transform="translate(-8.08 -5.12)"/><path d="M10.49,257.13a7.48,7.48,0,0,1,2.38-4.82l0,0-2.39,4.81Z" transform="translate(-8.08 -5.12)"/><path d="M548,235l3.93,2.83-0.33.42a10.31,10.31,0,0,1-3.57-3.28Z" transform="translate(-8.08 -5.12)"/><path d="M29.2,297.87A6.8,6.8,0,0,1,25.36,295l0,0,3.85,2.87Z" transform="translate(-8.08 -5.12)"/><path d="M562,249.88l-2.9-3.82,0,0a6.8,6.8,0,0,1,2.87,3.85Z" transform="translate(-8.08 -5.12)"/><path d="M434.27,110.73l4.34,1.9,0-.05-4.35-1.9Z" transform="translate(-8.08 -5.12)"/><path d="M423.75,423.19l4.32-1.92,0-.05-4.32,1.92Z" transform="translate(-8.08 -5.12)"/><path d="M163.59,428.44l-4.32-1.92,0,0.05,4.32,1.92Z" transform="translate(-8.08 -5.12)"/><path d="M163.55,428.49l4.34,1.91,0-.05-4.34-1.91Z" transform="translate(-8.08 -5.12)"/><path d="M392.55,437.12l4.34-1.9,0-.05-4.34,1.9Z" transform="translate(-8.08 -5.12)"/><path d="M413.63,101.61l4.34,1.9,0-.05-4.34-1.9Z" transform="translate(-8.08 -5.12)"/><path d="M135.23,114l-4.32,1.92,0,0.05,4.32-1.92Z" transform="translate(-8.08 -5.12)"/><path d="M454.91,119.85l4.35,1.9,0-.05-4.35-1.9Z" transform="translate(-8.08 -5.12)"/><path d="M114.63,123.19l4.34-1.9,0-.05-4.34,1.9Z" transform="translate(-8.08 -5.12)"/><path d="M559.11,246.05l-2.94-2.9,0.42-.39c0.92,1,2.13,1.79,2.5,3.3Z" transform="translate(-8.08 -5.12)"/><path d="M397.37,94.34L393,92.44l0,0.05,4.34,1.91Z" transform="translate(-8.08 -5.12)"/><path d="M176.58,95.85l4.32-1.92,0,0-4.32,1.92Z" transform="translate(-8.08 -5.12)"/><path d="M135.27,114.07l4.34-1.9,0-.05-4.34,1.9Z" transform="translate(-8.08 -5.12)"/><path d="M172.23,97.75l4.35-1.9,0,0-4.35,1.9Z" transform="translate(-8.08 -5.12)"/><path d="M151.59,106.87l4.32-1.92,0-.05-4.32,1.92Z" transform="translate(-8.08 -5.12)"/><path d="M25.36,295c-1.46-.42-2.29-1.59-3.16-2.7,1.2,0.73,2.51,1.33,3.12,2.74Z" transform="translate(-8.08 -5.12)"/><path d="M155.91,105l4.35-1.9,0-.05-4.35,1.9Z" transform="translate(-8.08 -5.12)"/><path d="M463.61,405.45l4.32-1.92,0-.05-4.32,1.92Z" transform="translate(-8.08 -5.12)"/><path d="M463.57,405.4l-4.34,1.9,0,0.05,4.34-1.9Z" transform="translate(-8.08 -5.12)"/><path d="M122.31,410.2L118,408.28l0,0.05,4.32,1.92Z" transform="translate(-8.08 -5.12)"/><path d="M126.65,412.1l-4.35-1.9,0,0.05,4.35,1.9Z" transform="translate(-8.08 -5.12)"/><path d="M138.59,417.45l4.32,1.92,0-.05-4.32-1.92Z" transform="translate(-8.08 -5.12)"/><path d="M432.41,419.37l4.32-1.92,0-.05-4.32,1.92Z" transform="translate(-8.08 -5.12)"/><path d="M147.29,421.22l-4.34-1.9,0,0.05,4.34,1.9Z" transform="translate(-8.08 -5.12)"/><path d="M432.37,419.32l-4.34,1.9,0,0.05,4.34-1.9Z" transform="translate(-8.08 -5.12)"/><path d="M325.33,214.12h-1.86l0-.42,1.84-.12Z" transform="translate(-8.08 -5.12)"/><path d="M127.86,243.12v-1.86l0.44,0,0.12,1.9h-0.56Z" transform="translate(-8.08 -5.12)"/><path d="M547.57,296.92l-3.37,2.39,0,0,3.36-2.4Z" transform="translate(-8.08 -5.12)"/><path d="M325.38,317.29l-2.07.16C324.2,316.76,324.2,316.76,325.38,317.29Z" transform="translate(-8.08 -5.12)"/><path d="M348.17,317H350l0,0.41-1.9.11Z" transform="translate(-8.08 -5.12)"/><path d="M300.56,214.21h-1.82l0-.34,1.82-.21Z" transform="translate(-8.08 -5.12)"/><path d="M341.92,317.35h-2.2A1.39,1.39,0,0,1,341.92,317.35Z" transform="translate(-8.08 -5.12)"/><path d="M331.55,316.84h2a1.55,1.55,0,0,1-.09.48C332.86,317.44,332.19,317.75,331.55,316.84Z" transform="translate(-8.08 -5.12)"/><path d="M26.31,237a4.29,4.29,0,0,1,2.89-2.39l0,0-2.88,2.4Z" transform="translate(-8.08 -5.12)"/><path d="M314.87,316.84h2.27C316.33,317.37,316.33,317.37,314.87,316.84Z" transform="translate(-8.08 -5.12)"/><path d="M128.22,233l0.08,1.78-0.43,0V233Z" transform="translate(-8.08 -5.12)"/><path d="M365.91,299.88v-2.07a1.62,1.62,0,0,1,.48.09A1.65,1.65,0,0,1,365.91,299.88Z" transform="translate(-8.08 -5.12)"/><path d="M366.38,317l-0.49-2.61,0.64,0L366.39,317h0Z" transform="translate(-8.08 -5.12)"/><path d="M366.46,306.06v2a1.56,1.56,0,0,1-.54-0.45,15.46,15.46,0,0,1,.07-1.55h0.48Z" transform="translate(-8.08 -5.12)"/><path d="M331.79,213.68h1.79l0,0.39-1.78.17Z" transform="translate(-8.08 -5.12)"/><path d="M341.91,214.05H340l0-.4,2-.16v0.56Z" transform="translate(-8.08 -5.12)"/><path d="M552.37,293.08l-2.88,2.4,0,0,2.87-2.41Z" transform="translate(-8.08 -5.12)"/><path d="M448,290.17v2.1c-1-.69-0.41-1.41-0.53-2Z" transform="translate(-8.08 -5.12)"/><path d="M210.31,215.87l0.1,1.85-0.43,0v-1.84Z" transform="translate(-8.08 -5.12)"/><path d="M366.32,289.48v1.94l-0.41.05-0.17-2h0.58Z" transform="translate(-8.08 -5.12)"/><path d="M15.23,285l2.5,2.43-0.55.45-1.91-2.92Z" transform="translate(-8.08 -5.12)"/><path d="M365.87,283.23v-1.89h0.34v1.89h-0.34Z" transform="translate(-8.08 -5.12)"/><path d="M350,214.14l-1.87-.12,0-.39H350Z" transform="translate(-8.08 -5.12)"/><path d="M128.39,249.47v2A1.24,1.24,0,0,1,128.39,249.47Z" transform="translate(-8.08 -5.12)"/><path d="M317.18,214.18H315A1.38,1.38,0,0,1,317.18,214.18Z" transform="translate(-8.08 -5.12)"/><path d="M12.88,252.31a3.69,3.69,0,0,1,1.93-2.87l0,0-1.93,2.88Z" transform="translate(-8.08 -5.12)"/><path d="M308.8,317.16h-1.71v-0.31h1.71v0.31Z" transform="translate(-8.08 -5.12)"/><path d="M356.2,213.59h2.51C357.62,214.25,357.05,214.28,356.2,213.59Z" transform="translate(-8.08 -5.12)"/><path d="M555.62,242.53L553.1,240C554.85,240.64,554.85,240.64,555.62,242.53Z" transform="translate(-8.08 -5.12)"/><path d="M308.8,214.18H307l0-.4,1.76-.09Z" transform="translate(-8.08 -5.12)"/><path d="M356.46,317l2-.19a2.19,2.19,0,0,1-.52.61c-0.49,0-1,0-1.46-.07V317Z" transform="translate(-8.08 -5.12)"/><path d="M209.84,226l-0.09-1.69a2.51,2.51,0,0,1,.44,0c0.05,0.54.08,1.09,0.11,1.63Z" transform="translate(-8.08 -5.12)"/><path d="M399.13,309.94l1.94-.5,0.11,0.38-1.84.59Z" transform="translate(-8.08 -5.12)"/><path d="M300.54,317.19a5.39,5.39,0,0,1-.89.1,1,1,0,0,1-.82-0.44h1.71v0.34Z" transform="translate(-8.08 -5.12)"/><path d="M366.31,273.27l-0.13,1.65-0.39,0,0.1-1.65Z" transform="translate(-8.08 -5.12)"/><path d="M548.08,235l-2.41-1.92,0,0A2.93,2.93,0,0,1,548,235Z" transform="translate(-8.08 -5.12)"/><path d="M29.2,234.56l2.39-1.93,0,0-2.39,1.93Z" transform="translate(-8.08 -5.12)"/><path d="M543.25,231.19l2.39,1.93,0,0-2.39-1.93Z" transform="translate(-8.08 -5.12)"/><path d="M31.6,232.64l2-2L34,231.17l-2.43,1.43Z" transform="translate(-8.08 -5.12)"/><path d="M424.89,224.68l-1.8-.35,0.07-.37,1.8,0.31Z" transform="translate(-8.08 -5.12)"/><path d="M152.89,224.82c-0.45.12-.9,0.27-1.35,0.36a3.46,3.46,0,0,1-.89-0.32l2.22-.47Z" transform="translate(-8.08 -5.12)"/><path d="M169.13,221.45l-1.78.57-0.13-.44,1.79-.52Z" transform="translate(-8.08 -5.12)"/><path d="M408.84,221.53l-2-.51,0.1-.42,2,0.49Z" transform="translate(-8.08 -5.12)"/><path d="M433,226.41l-1.86-.46,0.1-.42,1.82,0.4Z" transform="translate(-8.08 -5.12)"/><path d="M375.13,314.77l1.66-.34,0.09,0.46-1.75.33v-0.45Z" transform="translate(-8.08 -5.12)"/><path d="M192.95,314.14l-1.82-.52,0.11-.39,1.83,0.49Z" transform="translate(-8.08 -5.12)"/><path d="M393,311.65l-1.82.19,0-.36,1.82-.21Z" transform="translate(-8.08 -5.12)"/><path d="M158.93,306.64l1.88,0.48-0.09.4-1.9-.4Z" transform="translate(-8.08 -5.12)"/><path d="M423.48,304.9l1.66-.33,0.1,0.35-1.6.47Z" transform="translate(-8.08 -5.12)"/><path d="M144.47,304.16l-1.72-.26,0-.42,1.69,0.24v0.44Z" transform="translate(-8.08 -5.12)"/><path d="M433.36,303.39l-1.86.29-0.06-.36,1.85-.39Z" transform="translate(-8.08 -5.12)"/><path d="M134.69,301.71l1.84,0.46-0.1.42-1.8-.4Z" transform="translate(-8.08 -5.12)"/><path d="M439.51,301.68l1.92-.45,0.1,0.35-1.79.6Z" transform="translate(-8.08 -5.12)"/><path d="M142.94,226.45l1.78-.49a1.61,1.61,0,0,1,0,.46c-0.56.18-1.13,0.34-1.69,0.5Z" transform="translate(-8.08 -5.12)"/><path d="M20.68,291.16l-1.83-1.64A2.16,2.16,0,0,1,20.68,291.16Z" transform="translate(-8.08 -5.12)"/><path d="M382.81,215.77l1.86,0.36-0.09.42-1.85-.42Z" transform="translate(-8.08 -5.12)"/><path d="M193.24,216.7l-1.68.37a2.29,2.29,0,0,1,0-.48c0.56-.12,1.13-0.22,1.7-0.32Z" transform="translate(-8.08 -5.12)"/><path d="M183.21,218.34l1.89-.53,0.12,0.45-1.9.47Z" transform="translate(-8.08 -5.12)"/><path d="M366.05,212.5l2.44,0.29a1.74,1.74,0,0,1-2.38-.35Z" transform="translate(-8.08 -5.12)"/><path d="M365.86,258.45v-1.73h0.23v1.73h-0.23Z" transform="translate(-8.08 -5.12)"/><path d="M210.09,257.18v1.71h-0.23v-1.71h0.23Z" transform="translate(-8.08 -5.12)"/><path d="M448.07,257.21V259h-0.24v-1.83h0.24Z" transform="translate(-8.08 -5.12)"/><path d="M135,227.93l1.54-.17,0.06,0.33-1.53.29Z" transform="translate(-8.08 -5.12)"/><path d="M366.16,265v1.55l-0.27,0-0.14-1.5Z" transform="translate(-8.08 -5.12)"/><path d="M210.06,265.4v1.75h-0.25v-1.77Z" transform="translate(-8.08 -5.12)"/><path d="M15.28,284.92l-1.56-1.47,0.48-.36,1,1.87Z" transform="translate(-8.08 -5.12)"/><path d="M561.48,283.47L560,285.4l0,0,1.42-1.94Z" transform="translate(-8.08 -5.12)"/><path d="M447.82,242.7v-2h0.32l0.11,1.91Z" transform="translate(-8.08 -5.12)"/><path d="M447.83,250.9V249h0.22v1.91h-0.22Z" transform="translate(-8.08 -5.12)"/><path d="M543.28,231.16l-1.76-1,0.39-.48,1.34,1.48Z" transform="translate(-8.08 -5.12)"/><path d="M175.05,309.94l1.71,0.43-0.08.4-1.7-.36Z" transform="translate(-8.08 -5.12)"/><path d="M266,213.89h1.51l0,0.24h-1.63Z" transform="translate(-8.08 -5.12)"/><path d="M184.83,312.3l-1.75-.13,0-.4,1.74,0.19Z" transform="translate(-8.08 -5.12)"/><path d="M383.12,313.16l1.82-.38,0.09,0.36-1.68.52Z" transform="translate(-8.08 -5.12)"/><path d="M274.13,213.94h1.71v0.24h-1.71v-0.24Z" transform="translate(-8.08 -5.12)"/><path d="M374.89,214.11l1.6,0.44-0.06.31-1.66-.23Z" transform="translate(-8.08 -5.12)"/><path d="M199.33,315l1.65,0.24-0.05.39-1.64-.21Z" transform="translate(-8.08 -5.12)"/><path d="M366.39,317c1-.76,1-0.76,2.34-0.53l-2.34.52h0Z" transform="translate(-8.08 -5.12)"/><path d="M216.43,316.71h1.79V317l-1.76.1Z" transform="translate(-8.08 -5.12)"/><path d="M224.61,316.72h1.76l0,0.3-1.7.1Z" transform="translate(-8.08 -5.12)"/><path d="M267.57,317.08H266v-0.27l1.56-.12Z" transform="translate(-8.08 -5.12)"/><path d="M274.08,316.81h1.73V317h-1.73v-0.24Z" transform="translate(-8.08 -5.12)"/><path d="M199.48,215l1.68-.4,0.1,0.46-1.71.28Z" transform="translate(-8.08 -5.12)"/><path d="M365.8,217.3v-1.93H366v1.93H365.8Z" transform="translate(-8.08 -5.12)"/><path d="M390.93,217.34l1.73,0.44v0.27a3.08,3.08,0,0,1-.91.05,4.58,4.58,0,0,1-.94-0.46Z" transform="translate(-8.08 -5.12)"/><path d="M160.91,223.3l-1.68.21-0.06-.32,1.68-.41Z" transform="translate(-8.08 -5.12)"/><path d="M416.79,223l-1.67-.2,0.06-.43,1.66,0.31Z" transform="translate(-8.08 -5.12)"/><path d="M400.62,219.74l-1.55-.18,0-.34,1.62,0.08Z" transform="translate(-8.08 -5.12)"/><path d="M175.38,219.77l1.67-.12,0,0.32-1.66.25Z" transform="translate(-8.08 -5.12)"/><path d="M128.46,290.64v2h-0.32l-0.11-1.9Z" transform="translate(-8.08 -5.12)"/><path d="M549.49,295.48l-1.92,1.44,0,0,1.92-1.44Z" transform="translate(-8.08 -5.12)"/><path d="M439.43,227.42h1.62l0,0.41-1.6-.11v-0.29Z" transform="translate(-8.08 -5.12)"/><path d="M216.37,214h2v0.25h-2V214Z" transform="translate(-8.08 -5.12)"/><path d="M152.43,305.89l-1.52-.39v-0.27a4.34,4.34,0,0,1,.9-0.07,3.71,3.71,0,0,1,.81.29Z" transform="translate(-8.08 -5.12)"/><path d="M209.73,308.49v-2h0.33l0.1,1.89Z" transform="translate(-8.08 -5.12)"/><path d="M417.29,306.64l-1.91.39-0.08-.38,1.89-.45Z" transform="translate(-8.08 -5.12)"/><path d="M226.47,214.23H224.6V214h1.87v0.24Z" transform="translate(-8.08 -5.12)"/><path d="M407.29,308.15l1.68-.2,0,0.37-1.68.23Z" transform="translate(-8.08 -5.12)"/><path d="M167,308.5l1.6,0.07,0,0.41-1.6-.14Z" transform="translate(-8.08 -5.12)"/></svg>